/* XPM */
static char * menusel_xpm[] = {
"4 25 32 1",
" 	c None",
".	c #AEB0B6",
"+	c #AFB1B7",
"@	c #D2D5DA",
"#	c #D3D5DA",
"$	c #BABEC2",
"%	c #B8BCC0",
"&	c #B6B9BE",
"*	c #B6BABE",
"=	c #B4B7BC",
"-	c #B1B5B9",
";	c #AFB3B7",
">	c #ADB0B5",
",	c #ABAEB3",
"'	c #A9ACB1",
")	c #A6A9AE",
"!	c #A5A8AD",
"~	c #A4A7AC",
"{	c #A2A5AA",
"]	c #A0A3A8",
"^	c #9EA1A6",
"/	c #9C9FA5",
"(	c #9A9DA3",
"_	c #989BA1",
":	c #96999F",
"<	c #95979D",
"[	c #93959C",
"}	c #7E8286",
"|	c #7D8186",
"1	c #7D8286",
"2	c #707379",
"3	c #70747A",
"...+",
"@@@#",
"$$$$",
"%%%%",
"&*&&",
"====",
"----",
";;;;",
">>>>",
",,,,",
"''''",
"))))",
"!!!!",
"~~~~",
"{{{{",
"]]]]",
"^^^^",
"////",
"((((",
"____",
"::::",
"<<<<",
"[[[[",
"}||1",
"2223"};
