/* XPM */
static char * desktop_xpm[] = {
"20 20 266 2",
"  	c None",
". 	c #D4D7D8",
"+ 	c #A7BBE4",
"@ 	c #D2D8E7",
"# 	c #EAEAEA",
"$ 	c #E4E5EA",
"% 	c #9AB2F0",
"& 	c #B0BEEC",
"* 	c #D4D4D4",
"= 	c #A8AEB8",
"- 	c #748BC0",
"; 	c #A2ADC3",
"> 	c #C1C5C9",
", 	c #C1C6CA",
"' 	c #C2C6CA",
") 	c #C2C6CB",
"! 	c #C1C6CB",
"~ 	c #C2C8CC",
"{ 	c #C2C7CC",
"] 	c #C0C6CC",
"^ 	c #869CD3",
"/ 	c #96A3CF",
"( 	c #AEB3B7",
"_ 	c #516B8E",
": 	c #4C6E99",
"< 	c #55789E",
"[ 	c #597EA2",
"} 	c #5F86A8",
"| 	c #628AAC",
"1 	c #628AAE",
"2 	c #5C84AD",
"3 	c #618BB2",
"4 	c #6792B6",
"5 	c #6693B5",
"6 	c #6592B5",
"7 	c #6491B4",
"8 	c #6390B4",
"9 	c #638FB4",
"0 	c #628EB3",
"a 	c #618DB2",
"b 	c #608CB1",
"c 	c #5E809D",
"d 	c #4A6E9B",
"e 	c #4C77AC",
"f 	c #5481B2",
"g 	c #5D8CB9",
"h 	c #6394C0",
"i 	c #6699C5",
"j 	c #6597C6",
"k 	c #6599C8",
"l 	c #6AA0CC",
"m 	c #69A0CC",
"n 	c #689FCB",
"o 	c #669ECA",
"p 	c #669CCA",
"q 	c #659BC9",
"r 	c #6399C8",
"s 	c #74A0C5",
"t 	c #83AAC9",
"u 	c #75A8CC",
"v 	c #5C86AA",
"w 	c #4A6F9C",
"x 	c #4C78AE",
"y 	c #527FB3",
"z 	c #5E8EBC",
"A 	c #6496C2",
"B 	c #6699C6",
"C 	c #699DC9",
"D 	c #699EC9",
"E 	c #669CC8",
"F 	c #649BC8",
"G 	c #6399C7",
"H 	c #6298C6",
"I 	c #6097C6",
"J 	c #5F95C4",
"K 	c #5D94C4",
"L 	c #7AA3C3",
"M 	c #92BDDA",
"N 	c #70ACD8",
"O 	c #5583AA",
"P 	c #496D9D",
"Q 	c #4A76AF",
"R 	c #4D7AB3",
"S 	c #5B8BBD",
"T 	c #6396C3",
"U 	c #699EC8",
"V 	c #689EC8",
"W 	c #6196C4",
"X 	c #5F95C3",
"Y 	c #5E94C2",
"Z 	c #5C93C2",
"` 	c #5A91C1",
" .	c #5A92C1",
"..	c #5991C1",
"+.	c #558EBF",
"@.	c #588BB8",
"#.	c #5790C3",
"$.	c #518ABE",
"%.	c #527DA0",
"&.	c #456B9C",
"*.	c #4672AF",
"=.	c #4774B2",
"-.	c #5383BA",
";.	c #6398C4",
">.	c #6DA4CA",
",.	c #6095C2",
"'.	c #5A8FBE",
").	c #588EBE",
"!.	c #568CBD",
"~.	c #548BBC",
"{.	c #5790BF",
"].	c #5690BF",
"^.	c #528EBE",
"/.	c #508BBC",
"(.	c #6190B7",
"_.	c #7099BB",
":.	c #6A9DC1",
"<.	c #507B9B",
"[.	c #3F659A",
"}.	c #416DAD",
"|.	c #426EAF",
"1.	c #4B7BB6",
"2.	c #659CC6",
"3.	c #679FC7",
"4.	c #558ABB",
"5.	c #5287B9",
"6.	c #5085B8",
"7.	c #4E84B8",
"8.	c #5790BE",
"9.	c #5895C0",
"0.	c #508EBD",
"a.	c #4B88BB",
"b.	c #4A85B7",
"c.	c #759DBC",
"d.	c #98C0DA",
"e.	c #73AED6",
"f.	c #45729A",
"g.	c #2E5892",
"h.	c #2F5EA5",
"i.	c #3260A7",
"j.	c #4478B4",
"k.	c #619CC6",
"l.	c #578FBF",
"m.	c #4B80B6",
"n.	c #487EB5",
"o.	c #477EB5",
"p.	c #538DBD",
"q.	c #5C99C3",
"r.	c #508FBD",
"s.	c #4886B9",
"t.	c #417EB5",
"u.	c #427EB3",
"v.	c #5184B2",
"w.	c #558DC3",
"x.	c #427BB5",
"y.	c #345F8C",
"z.	c #27518E",
"A.	c #22529D",
"B.	c #23549E",
"C.	c #3973B1",
"D.	c #4683B9",
"E.	c #3D78B4",
"F.	c #3A73B1",
"G.	c #3A73B0",
"H.	c #4782B7",
"I.	c #5592BF",
"J.	c #4F8DBC",
"K.	c #4383B8",
"L.	c #3C7AB5",
"M.	c #3977B4",
"N.	c #3771AE",
"O.	c #3368A3",
"P.	c #2E63A0",
"Q.	c #2D639D",
"R.	c #2F5986",
"S.	c #214886",
"T.	c #1C4993",
"U.	c #22549E",
"V.	c #316AAD",
"W.	c #316BAD",
"X.	c #306AAC",
"Y.	c #3068AA",
"Z.	c #3770AD",
"`.	c #4680B4",
" +	c #4681B5",
".+	c #407CB4",
"++	c #3774B2",
"@+	c #306CAF",
"#+	c #2A62A7",
"$+	c #27599E",
"%+	c #26589B",
"&+	c #275897",
"*+	c #275892",
"=+	c #29507B",
"-+	c #1D3F7C",
";+	c #19438C",
">+	c #22529A",
",+	c #2759A0",
"'+	c #2A5CA1",
")+	c #3163A3",
"!+	c #3567A5",
"~+	c #3568A7",
"{+	c #3166A8",
"]+	c #295CA3",
"^+	c #22529C",
"/+	c #1D4891",
"(+	c #1E478E",
"_+	c #20488C",
":+	c #224B8A",
"<+	c #244E89",
"[+	c #284876",
"}+	c #1B3874",
"|+	c #1A3F87",
"1+	c #204891",
"2+	c #204890",
"3+	c #254B90",
"4+	c #2B5093",
"5+	c #2C5295",
"6+	c #2F5496",
"7+	c #305697",
"8+	c #305698",
"9+	c #2C5195",
"0+	c #27498D",
"a+	c #26458A",
"b+	c #254285",
"c+	c #1E3E83",
"d+	c #214285",
"e+	c #234686",
"f+	c #244886",
"g+	c #254272",
"h+	c #1B326D",
"i+	c #1A3980",
"j+	c #1C3B83",
"k+	c #1B3982",
"l+	c #2D4788",
"m+	c #385291",
"n+	c #365090",
"o+	c #375090",
"p+	c #384F8E",
"q+	c #374D8C",
"r+	c #364C8A",
"s+	c #40548D",
"t+	c #3E528C",
"u+	c #374C87",
"v+	c #223B7D",
"w+	c #203B7E",
"x+	c #213D7F",
"y+	c #213F7F",
"z+	c #243B6D",
"A+	c #1C2D5A",
"B+	c #1A2F68",
"C+	c #1B2F69",
"D+	c #293B70",
"E+	c #304074",
"F+	c #2E3E72",
"G+	c #2E3C70",
"H+	c #2E3C6D",
"I+	c #2E3C6F",
"J+	c #394673",
"K+	c #354372",
"L+	c #303E6D",
"M+	c #203166",
"N+	c #1E3066",
"O+	c #1E3166",
"P+	c #1E3267",
"Q+	c #20315A",
"                                        ",
"                                        ",
"                                        ",
"  . + @ # # # # # # # # # # # # $ % & * ",
"  = - ; > , ' ) ! ! ~ ~ ~ { { { ] ^ / ( ",
"  _ : < [ } | 1 2 3 4 5 6 7 8 9 0 a b c ",
"  d e f g h i j k l m n o p q r s t u v ",
"  w x y z A B C D E F G H I J K L M N O ",
"  P Q R S T U V W X Y Z `  ...+.@.#.$.%.",
"  &.*.=.-.;.>.,.'.).!.~.{.].^./.(._.:.<.",
"  [.}.|.1.2.3.4.5.6.7.8.9.0.a.b.c.d.e.f.",
"  g.h.i.j.k.l.m.n.o.p.q.r.s.t.u.v.w.x.y.",
"  z.A.B.C.D.E.F.G.H.I.J.K.L.M.N.O.P.Q.R.",
"  S.T.U.V.W.X.Y.Z.`. +.+++@+#+$+%+&+*+=+",
"  -+;+>+,+,+,+'+)+!+~+{+]+^+/+(+_+:+<+[+",
"  }+|+1+2+3+4+5+6+7+8+9+0+a+b+c+d+e+f+g+",
"  h+i+j+k+l+m+n+o+p+q+r+s+t+u+v+w+x+y+z+",
"  A+B+C+C+D+E+F+G+H+I+H+J+K+L+M+N+O+P+Q+",
"                                        ",
"                                        "};
