/* XPM */
static char * linux_xpm[] = {
"60 20 96 2",
"  	c None",
". 	c #F9FAFA",
"+ 	c #F7F7F8",
"@ 	c #4A97EC",
"# 	c #509DED",
"$ 	c #519EED",
"% 	c #F4F5F6",
"& 	c #4C98EB",
"* 	c #54A0ED",
"= 	c #55A1ED",
"- 	c #55A1EC",
"; 	c #F2F3F5",
"> 	c #4994E8",
", 	c #519CEA",
"' 	c #539EEB",
") 	c #EEEFF1",
"! 	c #468EE5",
"~ 	c #4D97E8",
"{ 	c #4F99E9",
"] 	c #478FE5",
"^ 	c #EBECEE",
"/ 	c #4289E3",
"( 	c #4991E6",
"_ 	c #4A92E6",
": 	c #4288E3",
"< 	c #E8E9EB",
"[ 	c #3B80DF",
"} 	c #3F84E1",
"| 	c #3E83E0",
"1 	c #397DDE",
"2 	c #E4E6E9",
"3 	c #3678DB",
"4 	c #3B7EDE",
"5 	c #3C7FDE",
"6 	c #397BDD",
"7 	c #E0E2E6",
"8 	c #E0E3E6",
"9 	c #3879DC",
"0 	c #3E82DF",
"a 	c #3F83E0",
"b 	c #DCDEE2",
"c 	c #DCDFE2",
"d 	c #3575DA",
"e 	c #3D80DF",
"f 	c #3D7FDF",
"g 	c #3C7EDE",
"h 	c #D8DBDF",
"i 	c #D7DBDF",
"j 	c #3372D8",
"k 	c #397BDC",
"l 	c #3B7DDD",
"m 	c #3A7BDC",
"n 	c #D3D7DC",
"o 	c #D3D7DB",
"p 	c #316ED6",
"q 	c #3777DA",
"r 	c #3878DB",
"s 	c #D0D4D9",
"t 	c #CFD3D8",
"u 	c #2A65D2",
"v 	c #2F6BD5",
"w 	c #306CD6",
"x 	c #2F6CD5",
"y 	c #2C68D3",
"z 	c #CDD1D5",
"A 	c #CCD1D5",
"B 	c #CBD0D5",
"C 	c #2B65D2",
"D 	c #2D69D4",
"E 	c #2E69D4",
"F 	c #2D68D4",
"G 	c #2962D0",
"H 	c #C8CCD1",
"I 	c #C7CCD1",
"J 	c #C7CCD2",
"K 	c #2B66D3",
"L 	c #306ED7",
"M 	c #316FD8",
"N 	c #2A65D3",
"O 	c #C3C8CE",
"P 	c #2963D1",
"Q 	c #2F6CD6",
"R 	c #C0C5CB",
"S 	c #2760D0",
"T 	c #2D69D5",
"U 	c #2E6BD6",
"V 	c #2761D0",
"W 	c #BDC2C9",
"X 	c #BCC1C9",
"Y 	c #255CCE",
"Z 	c #2B66D4",
"` 	c #B9BEC6",
" .	c #2053C9",
"..	c #2359CD",
"+.	c #245BCE",
"@.	c #A4AAB5",
". . . . . . . . . . . . . . . . . . . . . . . . . . . . . . . . . . . . . . . . . . . . . . . . . . . . . . . . . . . . ",
"+ + + + + + + + + + + + + + + + + + + + + + + + + + @ # $ $ # @ + + + + + + + + + + + + + + + + + + + + + + + + + + + + ",
"% % % % % % % % % % % % % % % % % % % % % % % % % % & * = - * & % % % % % % % % % % % % % % % % % % % % % % % % % % % % ",
"; ; ; ; ; ; ; ; ; ; ; ; ; ; ; ; ; ; ; ; ; ; ; ; ; ; > , ' ' , > ; ; ; ; ; ; ; ; ; ; ; ; ; ; ; ; ; ; ; ; ; ; ; ; ; ; ; ; ",
") ) ) ) ) ) ) ) ) ) ) ) ) ) ) ) ) ) ) ) ) ) ) ) ) ) ! ~ { { ~ ] ) ) ) ) ) ) ) ) ) ) ) ) ) ) ) ) ) ) ) ) ) ) ) ) ) ) ) ) ",
"^ ^ ^ ^ ^ ^ ^ ^ ^ ^ ^ ^ ^ ^ ^ ^ ^ ^ ^ ^ ^ ^ ^ ^ ^ ^ / ( _ _ ( : ^ ^ ^ ^ ^ ^ ^ ^ ^ ^ ^ ^ ^ ^ ^ ^ ^ ^ ^ ^ ^ ^ ^ ^ ^ ^ ^ ^ ",
"< < < < < < < < < < < < < < < < < < < < < < < < < < [ } } } | 1 < < < < < < < < < < < < < < < < < < < < < < < < < < < < ",
"2 2 2 2 2 2 2 2 2 2 2 2 2 2 2 2 2 2 2 2 3 4 5 5 5 6 2 2 2 2 2 2 2 2 2 2 2 2 2 2 2 2 2 2 2 2 2 2 2 2 2 2 2 2 2 2 2 2 2 2 ",
"7 8 8 8 7 8 8 8 7 8 8 8 7 8 8 8 7 8 8 8 9 0 a a 0 9 8 8 8 7 8 8 8 7 8 8 8 7 8 8 8 7 8 8 8 7 8 8 8 8 7 8 8 8 7 8 8 8 7 8 ",
"b c c c b c c c b c c c b c c c b c c c d 4 e f g d c c c b c c c b c c c b c c c b c c c b c c c c b c c c b c c c b c ",
"h h i h h h i h h h i h h h i h h h i h j k l l m j h i h h h i h h h i h h h i h h h i h h h i h h h h i h h h i h h h ",
"n n o n n n o n n n o n n n o n n n o n p q r r q p n o n n n o n n n o n n n o n n n o n n n o n n n n o n n n o n n n ",
"s s t s s s t s s s t s s s t s s s t s u v w w x y s t s s s t s s s t s s s t s s s t s s s t s s s s t s s s t s s s ",
"z A B z z A B z z A B z z A B z z A B z z z A B z z C D E E F G z z A B z z A B z z A B z z A B z z z A B z z A B z z A ",
"H I J H H I J H H I J H H I J H H I J H H H I J H H K L M M L N H H I J H H I J H H I J H H I J H H H I J H H I J H H I ",
"O O O O O O O O O O O O O O O O O O O O O O O O O O P Q L L Q P O O O O O O O O O O O O O O O O O O O O O O O O O O O O ",
"R R R R R R R R R R R R R R R R R R R R R R R R R R S T U U T V R R R R R R R R R R R R R R R R R R R R R R R R R R R R ",
"W X X W W X X W W X X W W X X W W X X W W W X X W W Y N Z Z N Y W W X X W W X X W W X X W W X X W W W X X W W X X W W X ",
"` ` ` ` ` ` ` ` ` ` ` ` ` ` ` ` ` ` ` ` ` ` ` ` ` `  ...+.+... .` ` ` ` ` ` ` ` ` ` ` ` ` ` ` ` ` ` ` ` ` ` ` ` ` ` ` ` ",
"@.@.@.@.@.@.@.@.@.@.@.@.@.@.@.@.@.@.@.@.@.@.@.@.@.@.@.@.@.@.@.@.@.@.@.@.@.@.@.@.@.@.@.@.@.@.@.@.@.@.@.@.@.@.@.@.@.@.@.@."};
