/* XPM */
static char *suse[] = {
/* columns rows colors chars-per-pixel */
"22 22 147 2 ",
"   c #28410B",
".  c #2B480D",
"X  c #35570F",
"o  c #375B10",
"O  c #3B6D0B",
"+  c #3E730B",
"@  c #427B0B",
"#  c #477316",
"$  c #487613",
"%  c #4C7C16",
"&  c #4D7E18",
"*  c #517F23",
"=  c #46820C",
"-  c #49860D",
";  c #4B8B0D",
":  c #4F920E",
">  c #51940E",
",  c #559C0F",
"<  c #4A8312",
"1  c #4E8914",
"2  c #518417",
"3  c #528A16",
"4  c #55871D",
"5  c #578B1C",
"6  c #539710",
"7  c #559C10",
"8  c #59921A",
"9  c #5C991C",
"0  c #619E1D",
"q  c #57A010",
"w  c #5AA610",
"e  c #5DAB12",
"r  c #64A41E",
"t  c #61B212",
"y  c #67BC13",
"u  c #66B619",
"i  c #6ABB1C",
"p  c #528324",
"a  c #578A25",
"s  c #5B8B25",
"d  c #578829",
"f  c #5B8A2B",
"g  c #5E9324",
"h  c #5F9C22",
"j  c #5C8633",
"k  c #5D8A32",
"l  c #629E20",
"z  c #62962E",
"x  c #629E28",
"c  c #638F31",
"v  c #659234",
"b  c #67903F",
"n  c #63A322",
"m  c #6DB228",
"M  c #71B92C",
"N  c #6CA034",
"B  c #75B436",
"V  c #6CC614",
"C  c #6ECA15",
"Z  c #71CF15",
"A  c #74C626",
"S  c #73C820",
"D  c #688E43",
"F  c #6F9A42",
"G  c #759D47",
"H  c #7C9E5C",
"J  c #75A345",
"K  c #78B040",
"L  c #7EAD51",
"P  c #7EA05E",
"I  c #82CE39",
"U  c #81B54F",
"Y  c #83BB4C",
"T  c #80A55B",
"R  c #84AB5E",
"E  c #85B354",
"W  c #86B05C",
"Q  c #8BB75C",
"!  c #82A362",
"~  c #87AC64",
"^  c #89AD63",
"/  c #8DB465",
"(  c #8FBE60",
")  c #90B56A",
"_  c #94B276",
"`  c #98B775",
"'  c #96B17C",
"]  c #9DBC7E",
"[  c #8DD04D",
"{  c #8FC957",
"}  c #92CF58",
"|  c #95C366",
" . c #98C06F",
".. c #9FC777",
"X. c #9CC873",
"o. c #A0C779",
"O. c #A3CB7C",
"+. c #A1D470",
"@. c #A5D278",
"#. c #A8D87A",
"$. c #9CB683",
"%. c #9DBB81",
"&. c #A5BE8C",
"*. c #AABF94",
"=. c #A3C582",
"-. c #AACF87",
";. c #A9C78B",
":. c #AFD588",
">. c #B6DE8F",
",. c #ACC394",
"<. c #B4CC9D",
"1. c #B3D392",
"2. c #B6D894",
"3. c #BADF95",
"4. c #B5D09B",
"5. c #BAD69E",
"6. c #BCDB9C",
"7. c #B8CDA4",
"8. c #BCD3A5",
"9. c #C1D6AA",
"0. c #C3DCAB",
"q. c #C9DEB5",
"w. c #CCDFB9",
"e. c #C6E3AA",
"r. c #CDE3B7",
"t. c #CFE5B9",
"y. c #D1E2BE",
"u. c #D4EABE",
"i. c #D5E4C3",
"p. c #D9E7CB",
"a. c #DBEBCB",
"s. c #DFF1CC",
"d. c #DEEAD2",
"f. c #E1EED4",
"g. c #E4F3D4",
"h. c #E6F0DB",
"j. c #E8F2DF",
"k. c #EAF8DE",
"l. c #EDF6E3",
"z. c #EDF9E1",
"x. c #F0F9E7",
"c. c #F1F7EB",
"v. c #F4FBED",
"b. c #F7FBF3",
"n. c #F9FDF6",
"m. c #FCFEFA",
"M. c None",
/* pixels */
"M.M.M.M.M.M.M.M.M.M.M.M.M.M.M.M.M.M.M.M.M.M.",
"M.M.M.M.M.M.M.M.0 r r r r r M.M.M.M.M.M.M.M.",
"M.M.M.M.M.M.9 | a.x.m.m.v.g.3.0 M.M.M.M.M.M.",
"M.M.M.M.8 N s.n.v.k.g.g.k.x.m.l.Q 9 M.M.M.M.",
"M.M.M.M.E v.g.>.2.5.0.q.q.r.r.g.v.O.8 M.M.M.",
"M.M.M.g g.3.| W T H H ! ' *.7.8.0.f.J M.M.M.",
"M.M.3 6.3.N k j k f d p d k b P &.4.r.8 M.M.",
"M.M.N t.3 O + @ @ @ = = z J % @ * $.<.) M.M.",
"M.2  .) + + + @ - ; ; E 1.( ..< @ ! $.] 2 M.",
"M.3 ;.D + + ; ; : : : 1...n L J = a ;.&.2 M.",
"M.4 <.* + ; ; 9 6 , q X.5.8.6.n ; = %.,.d M.",
"M.2 ,.p = ; : n q.Y e m X.-.Y 6 : ; R ,.s M.",
"M.2 _ F = ; 6 q O.d.r.{ u t w q > L <.,.2 M.",
"M.4 P ~ ; : 7 w t u #.u.f.e.:.6.q.=.;.] 2 M.",
"M.M.c ;.1 > , w t y V C S } @.L r h 9.^ M.M.",
"M.M.2 / Q > , w t y V Z V V t t ( y.8.4 M.M.",
"M.M.M.4 ;./ B B M i A I [ +.e.h.h.d.F M.M.M.",
"M.M.M.M.G i.d.i.a.f.x.v.m.m.v.c.h.) 2 M.M.M.",
"M.M.M.M.% d 8.l.l.l.c.b.m.m.n.p.G # M.M.M.M.",
"M.M.M.M.M.M.& ~ 4.a.v.b.j.w.` % M.M.M.M.M.M.",
"M.M.M.M.M.M.M.. o # c f # X   M.M.M.M.M.M.M.",
"M.M.M.M.M.M.M.M.M.M.M.M.M.M.M.M.M.M.M.M.M.M."
};
