/* XPM */
static char * taskbarbg_xpm[] = {
"4 25 37 1",
" 	c None",
".	c #FDFDFE",
"+	c #FCFCFD",
"@	c #F9FAFA",
"#	c #F7F7F8",
"$	c #F4F5F6",
"%	c #F2F3F5",
"&	c #EEEFF1",
"*	c #EBECEE",
"=	c #E8E9EB",
"-	c #E4E6E9",
";	c #E0E3E6",
">	c #E0E2E6",
",	c #DCDFE2",
"'	c #DCDEE2",
")	c #D8DBDF",
"!	c #D7DBDF",
"~	c #D3D7DC",
"{	c #D3D7DB",
"]	c #D0D4D9",
"^	c #CFD3D8",
"/	c #CDD1D5",
"(	c #CCD1D5",
"_	c #CBD0D5",
":	c #C8CCD1",
"<	c #C7CCD1",
"[	c #C7CCD2",
"}	c #C3C8CE",
"|	c #C0C5CB",
"1	c #BDC2C9",
"2	c #BCC1C9",
"3	c #B9BEC6",
"4	c #BABFC7",
"5	c #B9BFC7",
"6	c #A4AAB5",
"7	c #A5ABB6",
"8	c #BEC3CA",
"....",
"++++",
"@@@@",
"####",
"$$$$",
"%%%%",
"&&&&",
"****",
"====",
"----",
";>;;",
",',,",
")))!",
"~~~{",
"]]]^",
"//(_",
"::<[",
"}}}}",
"||||",
"1122",
"3345",
"6666",
"6666",
"7777",
"8888"};
