/* XPM */
static char * taskbuttonactive_xpm[] = {
"4 25 28 1",
" 	c None",
".	c #AFB2B7",
"+	c #D4D7DC",
"@	c #C2C5CC",
"#	c #BFC2C9",
"$	c #BCBFC6",
"%	c #BABDC3",
"&	c #B7BAC0",
"*	c #B4B7BE",
"=	c #B4B7BD",
"-	c #B1B4BB",
";	c #AEB1B8",
">	c #ACAFB5",
",	c #A9ACB2",
"'	c #A6A9AF",
")	c #A5A8AE",
"!	c #A2A5AB",
"~	c #A3A6AB",
"{	c #A0A3A9",
"]	c #9EA1A6",
"^	c #9B9EA4",
"/	c #999CA1",
"(	c #999CA2",
"_	c #979A9F",
":	c #94979D",
"<	c #92959A",
"[	c #7E8186",
"}	c #707379",
"....",
"++++",
"@@@@",
"####",
"$$$$",
"%%%%",
"&&&&",
"**=*",
"----",
";;;;",
">>>>",
",,,,",
"''''",
"''''",
"))))",
"!~~~",
"{{{{",
"]]]]",
"^^^^",
"/(//",
"____",
"::::",
"<<<<",
"[[[[",
"}}}}"};
