/* XPM */
static char * windows_xpm[] = {
"20 20 242 2",
"  	c None",
". 	c #3CB8FC",
"+ 	c #5CC2F8",
"@ 	c #7DCCF7",
"# 	c #91D3F6",
"$ 	c #86CCF2",
"% 	c #7BC6EE",
"& 	c #6EBEEA",
"* 	c #61B7E4",
"= 	c #54AFDE",
"- 	c #48A6D9",
"; 	c #3B9DD0",
"> 	c #3997C9",
", 	c #4497C5",
"' 	c #4F97C1",
") 	c #5A99BF",
"! 	c #55C2FD",
"~ 	c #7DCFFC",
"{ 	c #A3DDFB",
"] 	c #A3DBFA",
"^ 	c #94D4F6",
"/ 	c #86CCF1",
"( 	c #77C3ED",
"_ 	c #68BBE7",
": 	c #58B2E0",
"< 	c #49A8DB",
"[ 	c #3D9ED2",
"} 	c #469ECD",
"| 	c #53A0CB",
"1 	c #60A2C9",
"2 	c #6EA6C8",
"3 	c #78A8C7",
"4 	c #70C5F4",
"5 	c #B5CDD9",
"6 	c #C1D2DB",
"7 	c #BED2DB",
"8 	c #BBD1DB",
"9 	c #B8D0DC",
"0 	c #B4CEDB",
"a 	c #B0CCDA",
"b 	c #ABC8D8",
"c 	c #A5C5D6",
"d 	c #A3C3D3",
"e 	c #A6C3D1",
"f 	c #AAC2CF",
"g 	c #ADC2CD",
"h 	c #A1BBC9",
"i 	c #7CACC9",
"j 	c #96C9E5",
"k 	c #E2DFDC",
"l 	c #E2E1E0",
"m 	c #E5E4E3",
"n 	c #E8E7E6",
"o 	c #EAE9E8",
"p 	c #ECEBEA",
"q 	c #EDECEA",
"r 	c #EDECEB",
"s 	c #E8E7E5",
"t 	c #E5E4E2",
"u 	c #E1E1DF",
"v 	c #D8D8D7",
"w 	c #80AECC",
"x 	c #A7D0E5",
"y 	c #E5E2DF",
"z 	c #E7E5E3",
"A 	c #EBE8E6",
"B 	c #EEECEA",
"C 	c #F1EFED",
"D 	c #F3F1EF",
"E 	c #F5F2F1",
"F 	c #F5F2F0",
"G 	c #F4F1EF",
"H 	c #F2EFED",
"I 	c #EAE8E6",
"J 	c #E6E5E3",
"K 	c #D9DBDA",
"L 	c #86B2CE",
"M 	c #36B6FD",
"N 	c #51BEFA",
"O 	c #78CAF6",
"P 	c #98D4F5",
"Q 	c #93D1F2",
"R 	c #8ACCEF",
"S 	c #7FC5EB",
"T 	c #74C0E7",
"U 	c #69B9E2",
"V 	c #5EB2DD",
"W 	c #53AAD7",
"X 	c #4CA1CF",
"Y 	c #54A0CA",
"Z 	c #5DA0C7",
"` 	c #65A0C4",
" .	c #7BAAC6",
"..	c #E1E0DE",
"+.	c #8EB7D1",
"@.	c #4BBFFD",
"#.	c #70CBFD",
"$.	c #97D8FC",
"%.	c #A7DDFA",
"&.	c #99D6F7",
"*.	c #8ACFF3",
"=.	c #7CC6EE",
"-.	c #6DBEE9",
";.	c #5DB5E3",
">.	c #4DABDD",
",.	c #3EA1D5",
"'.	c #419DCF",
").	c #4E9ECB",
"!.	c #5BA1CA",
"~.	c #68A4C8",
"{.	c #72A7C7",
"].	c #DEDEDE",
"^.	c #94BBD3",
"/.	c #61C6FE",
"(.	c #A6C9DB",
"_.	c #BFD2DA",
":.	c #BFD2DB",
"<.	c #BCD1DB",
"[.	c #B9D1DC",
"}.	c #B5CEDC",
"|.	c #B1CCDA",
"1.	c #ACCAD8",
"2.	c #A7C6D6",
"3.	c #A3C4D4",
"4.	c #A6C3D2",
"5.	c #A8C2CF",
"6.	c #ACC2CE",
"7.	c #ACC1CB",
"8.	c #7FACC8",
"9.	c #DFDFDF",
"0.	c #9AC0D6",
"a.	c #74CAF9",
"b.	c #DEDAD6",
"c.	c #E1E0DF",
"d.	c #E4E3E2",
"e.	c #E7E7E5",
"f.	c #E9E9E7",
"g.	c #EBEAE9",
"h.	c #E9E8E6",
"i.	c #E3E2E1",
"j.	c #E2E0DE",
"k.	c #93B4C8",
"l.	c #DEDFDF",
"m.	c #9BBFD6",
"n.	c #88D1F9",
"o.	c #DEDCDA",
"p.	c #E3E3E2",
"q.	c #E6E6E5",
"r.	c #E9E9E8",
"s.	c #ECECEC",
"t.	c #EEEEEE",
"u.	c #F0F0EF",
"v.	c #F0F0F0",
"w.	c #EFEFEF",
"x.	c #EDEDED",
"y.	c #EBEBEA",
"z.	c #E7E7E6",
"A.	c #E4E4E3",
"B.	c #E3E2E0",
"C.	c #99B8CB",
"D.	c #DDDEDE",
"E.	c #80AECB",
"F.	c #9CD9F9",
"G.	c #E0DEDC",
"H.	c #E5E5E4",
"I.	c #ECECED",
"J.	c #F3F3F3",
"K.	c #F5F5F5",
"L.	c #F1F1F1",
"M.	c #EEEEED",
"N.	c #9FBDCE",
"O.	c #DADBDB",
"P.	c #609ABD",
"Q.	c #A1DBF9",
"R.	c #EFEFEE",
"S.	c #F3F3F2",
"T.	c #F6F6F6",
"U.	c #F9F9F9",
"V.	c #FAFAFA",
"W.	c #F8F8F8",
"X.	c #F4F4F4",
"Y.	c #F1F1F0",
"Z.	c #E8E8E7",
"`.	c #E7E6E4",
" +	c #A5C0D2",
".+	c #C7D1D6",
"++	c #3F83AE",
"@+	c #9BD9F9",
"#+	c #E3E0DE",
"$+	c #ECECEB",
"%+	c #FCFCFC",
"&+	c #FDFDFD",
"*+	c #EAEAE9",
"=+	c #AEC7D5",
"-+	c #41789B",
";+	c #96D6F9",
">+	c #E2E0DD",
",+	c #F2F2F1",
"'+	c #F7F7F6",
")+	c #F4F4F3",
"!+	c #E6E5E4",
"~+	c #AFC7D6",
"{+	c #8FD4F9",
"]+	c #E1DEDC",
"^+	c #EDEDEC",
"/+	c #9CBCCE",
"(+	c #8AD3FB",
"_+	c #DFDCDA",
":+	c #E2E2E1",
"<+	c #EBEBEB",
"[+	c #E9E9E9",
"}+	c #E2E1DF",
"|+	c #86ADC5",
"1+	c #83D1FB",
"2+	c #CFD6D9",
"3+	c #D7DCDE",
"4+	c #D9DEE0",
"5+	c #DBE0E2",
"6+	c #DDE2E5",
"7+	c #DFE4E6",
"8+	c #E1E5E6",
"9+	c #E1E5E7",
"0+	c #E1E4E6",
"a+	c #E0E3E4",
"b+	c #DEE0E1",
"c+	c #DCDEDE",
"d+	c #D9DCDB",
"e+	c #659ABA",
"f+	c #5DA7CF",
"g+	c #4B97C0",
"h+	c #3E8EB9",
"i+	c #3388B5",
"j+	c #3386B2",
"k+	c #3B88B1",
"l+	c #438AAF",
"m+	c #4C8CAD",
"n+	c #558FAD",
"o+	c #5E92AD",
"p+	c #6893AB",
"q+	c #7396AB",
"r+	c #7898AA",
"s+	c #5483A0",
"                                        ",
"      . + @ # $ % & * = - ; > , ' )     ",
"      ! ~ { ] ^ / ( _ : < [ } | 1 2 3   ",
"      4 5 6 7 8 9 0 a b c d e f g h i   ",
"      j k l m n o p q r p o s t u v w   ",
"      x y z A B C D E F G H B I J K L   ",
"  M N O P Q R S T U V W X Y Z `  ...+.  ",
"  @.#.$.%.&.*.=.-.;.>.,.'.).!.~.{.].^.  ",
"  /.(._.:.<.[.}.|.1.2.3.4.5.6.7.8.9.0.  ",
"  a.b.c.d.e.f.g.q q p g.h.J i.j.k.l.m.  ",
"  n.o.p.q.r.s.t.u.v.w.x.y.z.A.B.C.D.E.  ",
"  F.G.H.r.I.v.J.K.K.J.L.M.y.z.t N.O.P.  ",
"  Q.j.z.y.R.S.T.U.V.W.X.Y.s.Z.`. +.+++  ",
"  @+#+Z.$+v.X.W.%+&+U.K.L.M.*+`.=+-+    ",
"  ;+>+z.y.t.,+T.W.U.'+)+v.$+Z.!+~+      ",
"  {+]+H.r.$+R.,+)+)+S.v.^+*+q.t /+      ",
"  (+_+:+q.r.<+x.t.R.M.$+[+z.A.}+|+      ",
"  1+2+3+4+5+6+7+8+9+9+0+a+b+c+d+e+      ",
"    f+g+h+i+j+k+l+m+n+o+p+q+r+s+        ",
"                                        "};
